<?xml version="1.0" encoding="UTF-8"?> <svg xmlns="http://www.w3.org/2000/svg" width="150" height="30"><style type="text/css">.st0{fill:#00A688;} .st1{fill:#757679;} .st2{fill:#767679;}</style><g><title>background</title><rect fill="none" id="canvas_background" height="32" width="152" y="-1" x="-1"></rect></g><g><title>Layer 1</title><g id="svg_2"><path d="m64.559158,8.763057c1.459442,0 2.811584,0.279013 4.077873,0.815575s2.382339,1.287749 3.326683,2.2321s1.695534,2.060398 2.232094,3.326684s0.815582,2.618423 0.815582,4.077873c0,1.416523 -0.279015,2.768661 -0.815582,4.034948s-1.287743,2.382334 -2.232094,3.326685s-2.060394,1.695534 -3.326683,2.232098s-2.618431,0.815575 -4.077873,0.815575s-2.811588,-0.279013 -4.077873,-0.815575s-2.382339,-1.287748 -3.326687,-2.232098s-1.695534,-2.060398 -2.232098,-3.326685s-0.815571,-2.618425 -0.815571,-4.034948c0,-1.45945 0.279011,-2.811586 0.815571,-4.077873s1.287754,-2.382335 2.232098,-3.326684s2.060402,-1.695538 3.326687,-2.2321c1.266289,-0.558023 2.618427,-0.815575 4.077873,-0.815575zm0,4.74321c-1.588226,0 -2.940365,0.558024 -4.034946,1.674075c-1.116055,1.116049 -1.674076,2.44672 -1.674076,4.034946c0,1.566761 0.558022,2.897434 1.674076,3.992022c0.536564,0.558025 1.137508,0.965813 1.845772,1.244825c0.708263,0.279013 1.437984,0.407787 2.189175,0.407787c0.772652,0 1.502373,-0.128775 2.189171,-0.407787s1.309212,-0.6868 1.867241,-1.244825c1.116043,-1.116047 1.674072,-2.446722 1.674072,-3.992022c0,-1.588226 -0.558029,-2.940359 -1.674072,-4.034946c-1.180435,-1.11605 -2.53257,-1.674075 -4.056412,-1.674075z" class="st0" id="XMLID_216_"></path><path d="m92.031143,5.479297l-4.678825,0c-1.373596,0 -2.489647,1.116049 -2.489647,2.489648l0,19.080152c0,1.3736 -1.116051,2.489649 -2.489647,2.489649l0,0c-1.373596,0 -2.489647,-1.116049 -2.489647,-2.489649l0,-19.080152c0,-1.373599 -1.116051,-2.489648 -2.489655,-2.489648l-4.700279,0c-1.373604,0 -2.489655,-1.116049 -2.489655,-2.489649l0,0c0,-1.373599 1.116051,-2.489649 2.489655,-2.489649l7.189934,0l4.979294,0l7.147018,0c1.373589,0 2.489632,1.116049 2.489632,2.489649l0,0c0.021469,1.395062 -1.094574,2.489649 -2.468178,2.489649z" class="st1" id="XMLID_214_"></path><path d="m145.515656,26.855934c0,1.28775 -0.987259,2.682812 -2.489639,2.682812l-1.502365,0c-0.922897,0 -1.802856,-0.171701 -2.639893,-0.536564c-0.815582,-0.364861 -1.545303,-0.837034 -2.146271,-1.459448c-0.600937,-0.622412 -1.07312,-1.330675 -1.437973,-2.167711c-0.364868,-0.815575 -0.53656,-1.695538 -0.53656,-2.639887l0,-16.354414c0,-2.296486 2.36087,-2.167712 2.36087,-2.167712c1.437988,-0.150237 2.554031,0.837037 2.554031,2.189174l0,5.022222l2.875977,0l1.223358,4.936372l-4.120789,0l0,6.374359c0,0.5151 0.171692,0.965811 0.53656,1.309212c0.364868,0.364864 0.772659,0.53656 1.266281,0.53656l1.631165,0c2.232086,0.021465 2.425247,2.275026 2.425247,2.275026z" class="st1" id="XMLID_7_"></path><path d="m126.800369,16.875877l0,0l-0.429253,-0.021461l-1.738449,0l-6.224129,-0.021463c-0.965805,0 -1.738464,-0.77265 -1.738464,-1.738461s0.772659,-1.738461 1.738464,-1.738461l2.167709,0c0.901421,0 1.631142,-0.729724 1.631142,-1.631148l-0.064384,-3.069137l-3.755936,0.021462c-3.584236,0 -6.481674,2.897435 -6.481674,6.481672c0,3.562774 2.875984,6.460208 6.438751,6.481671l0,0l0.042923,0l7.962578,0l0.300476,0c0.879959,0.150236 1.523842,0.987272 1.352135,1.953085c-0.150238,0.794113 -0.922874,1.330675 -1.738457,1.330675l-1.07312,0l-5.000755,0l0,0l5.000755,0l0,0l-6.460205,0c-0.021469,0 -0.042923,0 -0.042923,0.021461l-2.897438,4.571508c-0.021461,0.042925 0,0.085852 0.042931,0.085852l10.022987,0c0.171692,0.021461 0.32193,0.021461 0.493629,0.021461c0.128769,0 0.279007,-0.021461 0.407784,-0.021461c3.326675,-0.214624 5.966583,-2.983284 5.966583,-6.352896c0.021454,-3.391075 -2.596985,-6.138271 -5.92366,-6.374359z" class="st1" id="XMLID_13_"></path><path d="m110.896675,10.780531l-0.236084,-0.214624c-0.60096,-0.558024 -1.523842,-0.558024 -2.103333,0.021462c-0.450706,0.450712 -1.030197,1.008737 -1.652611,1.609687c-0.70826,0.686799 -1.480911,1.437986 -2.253563,2.210636l-0.171692,0.150236c-1.652611,1.609686 -3.004753,2.918898 -3.970566,3.88471c-0.064384,0.064388 -0.1717,0.107313 -0.279015,0.107313s-0.214622,-0.042925 -0.279007,-0.128775c-0.1717,-0.1717 -0.279015,-0.321938 -0.407791,-0.450712s-0.236092,-0.279015 -0.407784,-0.450714c-0.279015,-0.300474 -0.665337,-0.472174 -1.073128,-0.493637s-0.794113,0.128777 -1.07312,0.407787l-0.021461,0.021465c-0.300476,0.279013 -0.472176,0.665337 -0.472176,1.073122s0.150238,0.794113 0.429245,1.094587c0.493637,0.5151 0.879959,0.901424 1.266281,1.287748c0.364868,0.386326 0.729729,0.751186 1.201904,1.223364c0.279015,0.279011 0.665344,0.450712 1.07312,0.450712c0,0 0,0 0.021469,0c0.407784,0 0.772652,-0.150238 1.051659,-0.429251l9.357651,-9.228869c0.300476,-0.300474 0.450699,-0.6868 0.450699,-1.094586s-0.128769,-0.77265 -0.450699,-1.051662z" class="st0" id="XMLID_18_"></path><path d="m107.698753,23.615097c-0.386314,-0.386324 -0.965805,-0.60095 -1.56675,-0.558023c-0.751198,0.042923 -1.566772,0.70826 -1.566772,0.729725c-1.180435,1.073124 -2.725731,1.652611 -4.313965,1.652611c-3.562767,0 -6.460197,-2.897436 -6.460197,-6.460209s2.89743,-6.460208 6.460205,-6.460208c0.794113,0 1.545303,0.150238 2.296486,0.407787c0.021461,0 0.450714,0.128776 0.686798,0.150237c0.75119,0.085851 1.416527,-0.064387 1.910164,-0.472174c0.386322,-0.321938 0.622421,-0.794112 0.665337,-1.287749c0.064392,-0.965812 -0.536568,-1.759924 -1.609688,-2.146249l-0.085846,-0.042926c-1.330673,-0.493636 -2.618423,-0.751186 -3.841782,-0.751186c-5.837799,0 -10.581017,4.743209 -10.581017,10.581004c0,2.854511 1.180443,5.644634 3.219376,7.662107c1.931625,1.8887 4.464203,2.940361 7.125549,2.940361c0.085854,0 0.150238,0 0.236092,0c4.464188,-0.107313 6.846527,-2.425261 7.168465,-2.790121l0,0c0.75119,-0.686802 0.772659,-1.28775 0.794113,-1.566763l0,-0.042923c0.021454,-0.622414 -0.150238,-1.158976 -0.536568,-1.545301z" class="st1" id="XMLID_17_"></path><path d="m14.873504,29.581669l-2.747199,0c-0.772649,0 -1.373599,-0.62241 -1.373599,-1.373596l0,-9.422033l0,-6.610446l0,-2.038937l0,0c0,-0.772649 0.622413,-1.3736 1.373599,-1.3736l9.765432,0c3.519846,0.107312 4.700285,1.352138 5.666094,2.425262c1.824312,2.038937 1.674076,6.374358 1.674076,7.640645l0,9.422031c0,0.772652 -0.622412,1.373598 -1.373598,1.373598l-2.747198,0c-0.77265,0 -1.3736,-0.622412 -1.3736,-1.373598l0,-9.422031c0,-1.309214 -0.107313,-2.382336 -1.030199,-3.240835c-0.879965,-0.879962 -2.296488,-1.330675 -3.541309,-1.330675l-1.459452,0c-0.772648,0 -1.373598,0.622413 -1.373598,1.373599l0,12.598479c0,0.77265 -0.407787,1.352137 -1.158975,1.352137" class="st0" id="XMLID_5_"></path><path d="m36.76524,29.517281l-2.747196,0c-0.772648,0 -1.3736,-0.62241 -1.3736,-1.373596l0,-9.422031l0,-6.610448l0,-2.038937l0,0c0,-0.772649 0.62241,-1.373599 1.3736,-1.373599l9.76543,0c3.519844,0.107312 4.700283,1.352138 5.666096,2.425261c1.82431,2.038937 1.674076,6.374358 1.674076,7.640645l0,9.400568c0,0.77265 -0.622414,1.373602 -1.3736,1.373602l-2.7472,0c-0.772652,0 -1.3736,-0.622414 -1.3736,-1.373602l0,-9.422031c0,-1.309212 -0.107311,-2.382336 -1.030197,-3.240834c-0.879963,-0.879961 -2.296486,-1.330674 -3.541309,-1.330674l-1.45945,0c-0.772652,0 -1.373596,0.622412 -1.373596,1.373598l0,12.619942c0,0.77265 -0.407795,1.352137 -1.158981,1.352137" class="st0" id="XMLID_4_"></path><path d="m148.241394,5.822697c0,-0.1717 -0.064392,-0.321938 -0.193161,-0.407787c-0.128769,-0.08585 -0.32193,-0.128775 -0.600952,-0.128775l-0.600937,0l0,1.845774l0.343384,0l0,-0.729724l0.343414,0l0.493622,0.729724l0.386337,0l-0.600952,-0.815575c0.300461,-0.107312 0.429245,-0.25755 0.429245,-0.493637zm-0.450714,0.236087c-0.064377,0.042925 -0.193176,0.08585 -0.343399,0.08585l-0.236084,0l0,-0.60095l0.236084,0c0.150223,0 0.279022,0.021463 0.343399,0.064388c0.085846,0.042925 0.107315,0.128775 0.107315,0.214625c0,0.107312 -0.042908,0.193162 -0.107315,0.236087z" class="st2" id="XMLID_19_"></path><path d="m147.533142,4.21301c-1.116058,0 -2.017487,0.901424 -2.017487,2.017474c0,1.11605 0.901428,2.017474 2.017487,2.017474s2.017471,-0.901424 2.017471,-2.017474c-0.000015,-1.116049 -0.901428,-2.017474 -2.017471,-2.017474zm0,3.605698c-0.879974,0 -1.588242,-0.708261 -1.588242,-1.588224s0.708267,-1.588224 1.588242,-1.588224s1.588226,0.708262 1.588226,1.588224c-0.000015,0.879962 -0.708267,1.588224 -1.588226,1.588224z" class="st2" id="XMLID_23_"></path><path d="m2.489649,0.5l-1.287749,0c-0.665337,0 -1.201899,0.536562 -1.201899,1.201899l0,26.291549c0,0.858498 0.708262,1.566757 1.566762,1.566757l2.790123,0c0.8585,0 1.566761,-0.70826 1.566761,-1.566757l0,-23.866288c0,-1.867236 -0.987274,-3.605698 -3.433997,-3.62716z" class="st0" id="XMLID_3_"></path></g></g></svg> 